<svg width="215" height="62" viewBox="0 0 215 62" fill="none" xmlns="http://www.w3.org/2000/svg">
<path d="M60.5818 45.6776L45.8661 30.8114L60.7705 15.7546L45.4888 0.316638L30.5845 15.1828L15.6801 0.126045L0.398437 15.564L15.3028 30.6208L0.398437 45.487L15.8688 60.9249L30.5845 46.2493L45.3001 61.1155L60.5818 45.6776Z" fill="#1D1D1B"/>
<path d="M91.9032 30.6208L77.1875 45.487L92.4692 60.9249L107.185 46.2493L122.089 61.1155L137.371 45.6776L122.655 30.8114L137.56 15.7546L122.278 0.316638L107.374 15.1828L92.4692 0.126045L77.1875 15.564L91.9032 30.6208Z" fill="#1D1D1B"/>
<path d="M154.428 15.564L169.143 30.6208L154.428 45.487L169.709 60.9249L184.425 46.2494L199.141 61.1155L214.611 45.6776L199.895 30.8114L214.8 15.7546L199.518 0.316639L184.614 15.1828L169.709 0.126047L154.428 15.564Z" fill="#1D1D1B"/>
</svg>
